<?xml version="1.0" encoding="UTF-8"?>
<svg width="73px" height="82px" viewBox="0 0 73 82" version="1.1" xmlns="http://www.w3.org/2000/svg" xmlns:xlink="http://www.w3.org/1999/xlink">
    <!-- Generator: Sketch 50.2 (55047) - http://www.bohemiancoding.com/sketch -->
    <title>Group 18</title>
    <desc>Created with Sketch.</desc>
    <defs>
        <path d="M12.8572028,37.3828353 L12.8319096,37.3828353 C13.435541,38.3986706 13.7876999,39.5794706 13.7876999,40.8442 C13.7876999,44.6195765 10.7014459,47.6805882 6.89433635,47.6805882 C3.086254,47.6805882 0,44.6195765 0,40.8442 C0,40.0309529 0.15029984,39.2538824 0.413446162,38.5303529 C0.559368337,38.1290353 0.740798241,37.7450824 0.956276652,37.3828353 C1.16202692,37.0355412 1.39647521,36.7070588 1.65913513,36.4026941 C3.59211754,32.7184824 4.69042511,28.536 4.69042511,24.0964235 C4.69042511,19.4036118 3.46613806,14.9963529 1.32302772,11.1635765 C1.1873201,10.9793176 1.06085421,10.7883059 0.944602878,10.5905412 C0.83467484,10.4043529 0.733988539,10.2123765 0.642057569,10.0155765 C0.233961887,9.14251765 0,8.17347059 0,7.14798824 C0,3.37261176 3.086254,0.3116 6.89433635,0.3116 C10.7014459,0.3116 13.7876999,3.37261176 13.7876999,7.14798824 C13.7876999,8.405 13.4404051,9.57856471 12.843097,10.5905412 L12.9846415,10.5905412 C10.6367537,14.5540353 9.28502799,19.1672588 9.28502799,24.0964235 C9.28502799,28.9349059 10.5885994,33.4685412 12.8572028,37.3828353 Z" id="path-1"></path>
        <linearGradient x1="0%" y1="50.0000322%" x2="100.001536%" y2="50.0000322%" id="linearGradient-3">
            <stop stop-color="#82C3FB" offset="0%"></stop>
            <stop stop-color="#6BD1E9" offset="100%"></stop>
        </linearGradient>
        <path d="M0.209155117,7.14798824 C0.209155117,8.17347059 0.443117004,9.14251765 0.850726279,10.0155765 C0.942657249,10.2123765 1.04334355,10.4043529 1.15327159,10.5905412 C1.27000933,10.7883059 1.39647521,10.9793176 1.53218284,11.1635765 C3.67480677,14.9958706 4.89909382,19.4036118 4.89909382,24.0959412 C4.89909382,28.536 3.80078625,32.7184824 1.86829025,36.4026941 C1.60563033,36.7070588 1.37118204,37.0355412 1.16494536,37.3828353 C0.949466951,37.7450824 0.768037047,38.1290353 0.622114872,38.5303529 C0.359454957,39.2543647 0.209155117,40.0309529 0.209155117,40.8437176 C0.209155117,44.6200588 3.29540912,47.6805882 7.10251866,47.6805882 C10.9101146,47.6805882 13.996855,44.6200588 13.996855,40.8437176 C13.996855,39.5794706 13.6446962,38.3991529 13.0410648,37.3828353 L13.0663579,37.3828353 C10.7977545,33.4685412 9.4936967,28.9349059 9.4936967,24.0959412 C9.4936967,19.1677412 10.8459088,14.5535529 13.1933102,10.5905412 L13.0522521,10.5905412 C13.6490738,9.57856471 13.996855,8.405 13.996855,7.14798824 C13.996855,3.37261176 10.9101146,0.3116 7.10251866,0.3116 C3.29540912,0.3116 0.209155117,3.37261176 0.209155117,7.14798824" id="path-4"></path>
        <linearGradient x1="128.359948%" y1="89.1765816%" x2="-28.3630523%" y2="10.8235218%" id="linearGradient-6">
            <stop stop-color="#EB6967" offset="0%"></stop>
            <stop stop-color="#E99E6B" offset="100%"></stop>
        </linearGradient>
        <path d="M36.3210021,17.1978118 C40.1281117,17.1978118 43.2148521,20.2583412 43.2148521,24.0342 C43.2148521,27.8100588 40.1281117,30.8705882 36.3210021,30.8705882 C33.4643324,30.8705882 31.0138126,29.1481059 29.9675506,26.6929294 L29.9091818,26.7802353 C25.1808169,19.1421765 16.6891191,14.0427412 6.99307703,14.0239294 L6.99648188,14.0176588 C6.96146055,14.0181412 6.92838486,14.0224824 6.89433635,14.0224824 C3.086254,14.0224824 0,10.9619529 0,7.18609412 C0,3.41071765 3.086254,0.349705882 6.89433635,0.349705882 C9.29767457,0.349705882 11.4116005,1.57150588 12.6456157,3.42084706 L12.6606943,3.39190588 L12.6665312,3.39528235 C17.2640525,11.5967294 26.0865072,17.1486118 36.2198294,17.1486118 C36.2251799,17.1486118 36.2305304,17.1486118 36.2363673,17.1486118" id="path-7"></path>
        <linearGradient x1="0%" y1="49.9999807%" x2="99.9996923%" y2="49.9999807%" id="linearGradient-9">
            <stop stop-color="#82C3FB" offset="0%"></stop>
            <stop stop-color="#6BD1E9" offset="100%"></stop>
        </linearGradient>
        <path d="M0,7.18657647 C0,10.9619529 3.08674041,14.0224824 6.89384995,14.0224824 C6.92838486,14.0224824 6.96194696,14.0181412 6.99648188,14.0176588 L6.99307703,14.0244118 C16.6896055,14.0422588 25.1808169,19.1421765 29.9091818,26.7802353 L29.9675506,26.6929294 C31.0133262,29.1481059 33.4643324,30.8705882 36.3210021,30.8705882 C40.1281117,30.8705882 43.2143657,27.8100588 43.2143657,24.0342 C43.2143657,20.2583412 40.1281117,17.1978118 36.3210021,17.1978118 L36.2358809,17.1486118 C36.2305304,17.1486118 36.2251799,17.1486118 36.219343,17.1486118 C26.0865072,17.1486118 17.2640525,11.5967294 12.6665312,3.39528235 L12.6606943,3.39190588 L12.6451293,3.42084706 C11.4111141,1.57150588 9.29767457,0.349705882 6.89384995,0.349705882 C3.08674041,0.349705882 0,3.41023529 0,7.18657647" id="path-10"></path>
        <linearGradient x1="0%" y1="49.9999807%" x2="100.000818%" y2="49.9999807%" id="linearGradient-12">
            <stop stop-color="#EB6967" offset="0%"></stop>
            <stop stop-color="#E99E6B" offset="100%"></stop>
        </linearGradient>
        <path d="M0,7.18657647 C0,10.9619529 3.08674041,14.0224824 6.89384995,14.0224824 C6.92838486,14.0224824 6.96194696,14.0181412 6.99648188,14.0176588 L6.99307703,14.0244118 C16.6896055,14.0422588 25.1808169,19.1421765 29.9091818,26.7802353 L29.9675506,26.6929294 C31.0133262,29.1481059 33.4643324,30.8705882 36.3210021,30.8705882 C40.1281117,30.8705882 43.2143657,27.8100588 43.2143657,24.0342 C43.2143657,20.2583412 40.1281117,17.1978118 36.3210021,17.1978118 L36.2358809,17.1486118 C36.2305304,17.1486118 36.2251799,17.1486118 36.219343,17.1486118 C26.0865072,17.1486118 17.2640525,11.5967294 12.6665312,3.39528235 L12.6606943,3.39190588 L12.6451293,3.42084706 C11.4111141,1.57150588 9.29767457,0.349705882 6.89384995,0.349705882 C3.08674041,0.349705882 0,3.41023529 0,7.18657647" id="path-13"></path>
        <path d="M36.7733609,0.244070588 C40.5809568,0.244070588 43.6676972,3.30508235 43.6676972,7.08045882 C43.6676972,10.6826706 40.8562633,13.6274353 37.2913846,13.8908 C37.1196828,13.9038235 36.9484675,13.9168471 36.7733609,13.9168471 C36.7363939,13.9168471 36.7003998,13.9120235 36.6634328,13.9115412 C36.5150786,13.9091294 36.3681836,13.9009294 36.2222615,13.8893529 C26.3321429,14.0687882 17.7475413,19.5299882 13.2147122,27.5529647 L13.1860141,27.5693647 L13.1801772,27.5597176 C11.9607543,29.4828588 9.80742937,30.7649529 7.3466951,30.7649529 C3.53958555,30.7649529 0.452845149,27.7039412 0.452845149,23.9285647 C0.452845149,20.1527059 3.53958555,17.0921765 7.3466951,17.0921765 L7.35447761,17.0868706 C7.42014259,17.0873529 7.48434835,17.0921765 7.54952692,17.0921765 C17.1662846,17.0921765 25.6000999,12.0906588 30.3654318,4.57125882 C30.4529851,4.35130588 30.5502665,4.13665882 30.6601946,3.92828235 C30.864972,3.53854118 31.1057436,3.17147059 31.3791045,2.83044706" id="path-15"></path>
        <linearGradient x1="0.000360402949%" y1="49.9998333%" x2="99.9997778%" y2="49.9998333%" id="linearGradient-17">
            <stop stop-color="#82C3FB" offset="0%"></stop>
            <stop stop-color="#6BD1E9" offset="100%"></stop>
        </linearGradient>
        <path d="M36.3701293,0.345847059 C40.1772388,0.345847059 43.2639792,3.40685882 43.2639792,7.18271765 C43.2639792,10.7849294 40.4525453,13.7296941 36.888153,13.9930588 C36.7164512,14.0060824 36.5452359,14.0191059 36.3701293,14.0191059 C36.3326759,14.0191059 36.2971682,14.0142824 36.2602012,14.0133176 C36.1113606,14.0113882 35.9644656,14.0027059 35.8185434,13.9916118 C25.9284248,14.1710471 17.3443097,19.6322471 12.8109941,27.6547412 L12.7822961,27.6716235 L12.7769456,27.6619765 C11.5570362,29.5851176 9.40371135,30.8672118 6.94346349,30.8672118 C3.13586754,30.8672118 0.0491271322,27.8062 0.0491271322,24.0303412 C0.0491271322,20.2549647 3.13586754,17.1939529 6.94346349,17.1939529 L6.951246,17.1891294 C7.01642457,17.1896118 7.08063033,17.1939529 7.1458089,17.1939529 C16.7625666,17.1939529 25.1963819,12.1924353 29.9617138,4.67351765 C30.0492671,4.45356471 30.1470349,4.23891765 30.2564765,4.03054118 C30.461254,3.6408 30.702512,3.27372941 30.9758729,2.93270588" id="path-18"></path>
        <linearGradient x1="0.000907873262%" y1="49.999945%" x2="100.000325%" y2="49.999945%" id="linearGradient-20">
            <stop stop-color="#82C3FB" offset="0%"></stop>
            <stop stop-color="#6BD1E9" offset="100%"></stop>
        </linearGradient>
        <path d="M1.16835021,3.69578824 C0.0744203092,5.57310588 -0.0141058102,7.74948235 0.729610874,9.62149412 C0.890611674,10.0266706 1.09052505,10.4173765 1.3283782,10.7883059 C1.4558169,10.9860706 1.59444296,11.1775647 1.74279717,11.3627882 C5.92687233,19.2150118 6.07717217,28.9585412 1.26903651,37.2173882 C1.23644723,37.2733412 1.19996668,37.3264 1.16786381,37.3828353 L1.16786381,37.3915176 C-0.735934168,40.6613882 0.393503465,44.8419412 3.69134462,46.7303529 C6.98821295,48.6182824 11.2048774,47.4977765 13.108189,44.2279059 C14.3383129,42.1152 14.2959955,39.6248118 13.2258995,37.6153294 L13.2375733,37.6158118 L13.2370869,37.5830118 C8.49704824,29.6786941 8.02036914,19.5753294 12.8085621,10.9918588 C12.8917377,10.8722353 12.9724813,10.7502 13.0483609,10.6238235 C13.0673308,10.5924706 13.0897055,10.5640118 13.108189,10.5316941 C13.1957423,10.3816824 13.2696762,10.2282941 13.3445829,10.0739412 C14.8967084,6.88124706 13.7312767,2.99444706 10.5847082,1.19285882 C9.49953358,0.571588235 8.31367271,0.275905882 7.14434968,0.275905882 C4.76192697,0.275905882 2.44468284,1.50204706 1.16835021,3.69578824" id="path-21"></path>
        <linearGradient x1="146.675007%" y1="33.8931353%" x2="-46.6596793%" y2="66.1084779%" id="linearGradient-23">
            <stop stop-color="#FD8E23" offset="0%"></stop>
            <stop stop-color="#FBAF28" offset="100%"></stop>
        </linearGradient>
        <path d="M3.90001333,1.19189412 C0.602658582,3.07982353 -0.527265458,7.26085882 1.37653252,10.5307294 C2.46997601,12.4085294 4.32610608,13.5729294 6.33204957,13.8700588 C6.76738406,13.9342118 7.20806903,13.9583294 7.65118603,13.9390353 C7.88757996,13.9289059 8.12397388,13.9057529 8.3603678,13.8705412 C17.308802,14.2038471 25.8934035,18.9463412 30.7020256,27.2047059 C30.7351013,27.2606588 30.7633129,27.3185412 30.7954158,27.3744941 L30.8031983,27.3788353 C32.7069963,30.6487059 36.9231743,31.7692118 40.2210155,29.8812824 C43.5178838,27.9933529 44.6473214,23.8123176 42.7435235,20.5424471 C41.5138859,18.4297412 39.3177572,17.2214471 37.0282383,17.1351059 L37.0340752,17.1254588 L37.0053771,17.1095412 C27.7320229,17.2277176 18.6707423,12.5855529 13.569303,4.182 C13.5055837,4.0508 13.4394323,3.92056471 13.367444,3.79177647 C13.349447,3.75945882 13.3358276,3.72665882 13.3168577,3.69434118 C13.2297908,3.54432941 13.1325093,3.40396471 13.0357143,3.26263529 C11.7170642,1.34287059 9.55401119,0.276388235 7.33453491,0.276388235 C6.16715752,0.276388235 4.98421509,0.571105882 3.90001333,1.19189412" id="path-24"></path>
        <linearGradient x1="97.8613095%" y1="88.8030823%" x2="2.13575562%" y2="11.2013953%" id="linearGradient-26">
            <stop stop-color="#FBAE28" offset="0%"></stop>
            <stop stop-color="#FD932A" offset="100%"></stop>
        </linearGradient>
    </defs>
    <g id="Page-1" stroke="none" stroke-width="1" fill="none" fill-rule="evenodd">
        <g id="WEBCELL-logo" transform="translate(-217.000000, -182.000000)">
            <g id="Group-5" transform="translate(217.000000, 182.000000)">
                <g id="Group-26">
                    <g id="Group-18">
                        <g id="Group-16">
                            <g id="Group-3" transform="translate(0.000000, 17.018859)">
                                <mask id="mask-2" fill="white">
                                    <use xlink:href="#path-1"></use>
                                </mask>
                                <g id="Clip-2"></g>
                                <path d="M12.8572028,37.3828353 C10.5885994,33.4685412 9.28502799,28.9349059 9.28502799,24.0964235 C9.28502799,19.1672588 10.6367537,14.5540353 12.9846415,10.5905412 L12.843097,10.5905412 C13.4404051,9.57856471 13.7876999,8.405 13.7876999,7.14798824 C13.7876999,3.37261176 10.7014459,0.3116 6.89433635,0.3116 C3.086254,0.3116 0,3.37261176 0,7.14798824 C0,8.17347059 0.233961887,9.14251765 0.642057569,10.0155765 C0.733988539,10.2123765 0.83467484,10.4043529 0.944602878,10.5905412 C1.06085421,10.7883059 1.1873201,10.9793176 1.32302772,11.1635765 C3.46613806,14.9963529 4.69042511,19.4036118 4.69042511,24.0964235 C4.69042511,28.536 3.59211754,32.7184824 1.65913513,36.4026941 C1.39647521,36.7070588 1.16202692,37.0355412 0.956276652,37.3828353 C0.740798241,37.7450824 0.559368337,38.1290353 0.413446162,38.5303529 C0.15029984,39.2538824 0,40.0309529 0,40.8442 C0,44.6195765 3.086254,47.6805882 6.89433635,47.6805882 C10.7014459,47.6805882 13.7876999,44.6195765 13.7876999,40.8442 C13.7876999,39.5794706 13.435541,38.3986706 12.8319096,37.3828353 L12.8572028,37.3828353 Z" id="Fill-1" fill="url(#linearGradient-3)" mask="url(#mask-2)"></path>
                            </g>
                            <g id="Group-6" transform="translate(58.855277, 17.018859)">
                                <mask id="mask-5" fill="white">
                                    <use xlink:href="#path-4"></use>
                                </mask>
                                <g id="Clip-5"></g>
                                <path d="M0.209155117,7.14798824 C0.209155117,8.17347059 0.443117004,9.14251765 0.850726279,10.0155765 C0.942657249,10.2123765 1.04334355,10.4043529 1.15327159,10.5905412 C1.27000933,10.7883059 1.39647521,10.9793176 1.53218284,11.1635765 C3.67480677,14.9958706 4.89909382,19.4036118 4.89909382,24.0959412 C4.89909382,28.536 3.80078625,32.7184824 1.86829025,36.4026941 C1.60563033,36.7070588 1.37118204,37.0355412 1.16494536,37.3828353 C0.949466951,37.7450824 0.768037047,38.1290353 0.622114872,38.5303529 C0.359454957,39.2543647 0.209155117,40.0309529 0.209155117,40.8437176 C0.209155117,44.6200588 3.29540912,47.6805882 7.10251866,47.6805882 C10.9101146,47.6805882 13.996855,44.6200588 13.996855,40.8437176 C13.996855,39.5794706 13.6446962,38.3991529 13.0410648,37.3828353 L13.0663579,37.3828353 C10.7977545,33.4685412 9.4936967,28.9349059 9.4936967,24.0959412 C9.4936967,19.1677412 10.8459088,14.5535529 13.1933102,10.5905412 L13.0522521,10.5905412 C13.6490738,9.57856471 13.996855,8.405 13.996855,7.14798824 C13.996855,3.37261176 10.9101146,0.3116 7.10251866,0.3116 C3.29540912,0.3116 0.209155117,3.37261176 0.209155117,7.14798824" id="Fill-4" fill="url(#linearGradient-6)" mask="url(#mask-5)"></path>
                            </g>
                            <g id="Group-9" transform="translate(0.000000, 50.783565)">
                                <mask id="mask-8" fill="white">
                                    <use xlink:href="#path-7"></use>
                                </mask>
                                <g id="Clip-8"></g>
                                <path d="M36.3210021,17.1978118 L36.2363673,17.1486118 C36.2305304,17.1486118 36.2251799,17.1486118 36.2198294,17.1486118 C26.0865072,17.1486118 17.2640525,11.5967294 12.6665312,3.39528235 L12.6606943,3.39190588 L12.6456157,3.42084706 C11.4116005,1.57150588 9.29767457,0.349705882 6.89433635,0.349705882 C3.086254,0.349705882 0,3.41071765 0,7.18609412 C0,10.9619529 3.086254,14.0224824 6.89433635,14.0224824 C6.92838486,14.0224824 6.96146055,14.0181412 6.99648188,14.0176588 L6.99307703,14.0239294 C16.6891191,14.0427412 25.1808169,19.1421765 29.9091818,26.7802353 L29.9675506,26.6929294 C31.0138126,29.1481059 33.4643324,30.8705882 36.3210021,30.8705882 C40.1281117,30.8705882 43.2148521,27.8100588 43.2148521,24.0342 C43.2148521,20.2583412 40.1281117,17.1978118 36.3210021,17.1978118" id="Fill-7" fill="url(#linearGradient-9)" mask="url(#mask-8)"></path>
                            </g>
                            <g id="Group-12" transform="translate(0.000000, 50.783565)">
                                <mask id="mask-11" fill="white">
                                    <use xlink:href="#path-10"></use>
                                </mask>
                                <g id="Clip-11"></g>
                                <path d="M0,7.18657647 C0,10.9619529 3.08674041,14.0224824 6.89384995,14.0224824 C6.92838486,14.0224824 6.96194696,14.0181412 6.99648188,14.0176588 L6.99307703,14.0244118 C16.6896055,14.0422588 25.1808169,19.1421765 29.9091818,26.7802353 L29.9675506,26.6929294 C31.0133262,29.1481059 33.4643324,30.8705882 36.3210021,30.8705882 C40.1281117,30.8705882 43.2143657,27.8100588 43.2143657,24.0342 C43.2143657,20.2583412 40.1281117,17.1978118 36.3210021,17.1978118 L36.2358809,17.1486118 C36.2305304,17.1486118 36.2251799,17.1486118 36.219343,17.1486118 C26.0865072,17.1486118 17.2640525,11.5967294 12.6665312,3.39528235 L12.6606943,3.39190588 L12.6451293,3.42084706 C11.4111141,1.57150588 9.29767457,0.349705882 6.89384995,0.349705882 C3.08674041,0.349705882 0,3.41023529 0,7.18657647" id="Fill-10" fill="url(#linearGradient-12)" mask="url(#mask-11)"></path>
                            </g>
                            <g id="Group-12" transform="translate(0.000000, 50.783565)">
                                <mask id="mask-14" fill="white">
                                    <use xlink:href="#path-13"></use>
                                </mask>
                                <g id="Clip-11"></g>
                                <path d="M0,7.18657647 C0,10.9619529 3.08674041,14.0224824 6.89384995,14.0224824 C6.92838486,14.0224824 6.96194696,14.0181412 6.99648188,14.0176588 L6.99307703,14.0244118 C16.6896055,14.0422588 25.1808169,19.1421765 29.9091818,26.7802353 L29.9675506,26.6929294 C31.0133262,29.1481059 33.4643324,30.8705882 36.3210021,30.8705882 C40.1281117,30.8705882 43.2143657,27.8100588 43.2143657,24.0342 C43.2143657,20.2583412 40.1281117,17.1978118 36.3210021,17.1978118 L36.2358809,17.1486118 C36.2305304,17.1486118 36.2251799,17.1486118 36.219343,17.1486118 C26.0865072,17.1486118 17.2640525,11.5967294 12.6665312,3.39528235 L12.6606943,3.39190588 L12.6451293,3.42084706 C11.4111141,1.57150588 9.29767457,0.349705882 6.89384995,0.349705882 C3.08674041,0.349705882 0,3.41023529 0,7.18657647" id="Fill-10" fill="url(#linearGradient-12)" mask="url(#mask-14)"></path>
                            </g>
                            <g id="Group-21" transform="translate(0.000000, 0.136506)">
                                <g id="Group-15" transform="translate(29.184435, 50.647059)">
                                    <mask id="mask-16" fill="white">
                                        <use xlink:href="#path-15"></use>
                                    </mask>
                                    <g id="Clip-14"></g>
                                    <path d="M36.7733609,0.244070588 C34.5874467,0.244070588 32.6423041,1.25604706 31.3791045,2.83044706 C31.1057436,3.17147059 30.864972,3.53854118 30.6601946,3.92828235 C30.5502665,4.13665882 30.4529851,4.35130588 30.3654318,4.57125882 C25.6000999,12.0906588 17.1662846,17.0921765 7.54952692,17.0921765 C7.48434835,17.0921765 7.42014259,17.0873529 7.35447761,17.0868706 L7.3466951,17.0921765 C3.53958555,17.0921765 0.452845149,20.1527059 0.452845149,23.9285647 C0.452845149,27.7039412 3.53958555,30.7649529 7.3466951,30.7649529 C9.80742937,30.7649529 11.9607543,29.4828588 13.1801772,27.5597176 L13.1860141,27.5693647 L13.2147122,27.5529647 C17.7475413,19.5299882 26.3321429,14.0687882 36.2222615,13.8893529 C36.3681836,13.9009294 36.5150786,13.9091294 36.6634328,13.9115412 C36.7003998,13.9120235 36.7363939,13.9168471 36.7733609,13.9168471 C36.9484675,13.9168471 37.1196828,13.9038235 37.2913846,13.8908 C40.8562633,13.6274353 43.6676972,10.6826706 43.6676972,7.08045882 C43.6676972,3.30508235 40.5809568,0.244070588 36.7733609,0.244070588" id="Fill-13" fill="url(#linearGradient-17)" mask="url(#mask-16)"></path>
                                </g>
                                <path d="M59.7882816,27.4582505 C59.7442555,27.3822703 59.7011864,27.3053343 59.6566818,27.2293541 C59.6983152,27.3077237 59.7437769,27.3822703 59.7882816,27.4582505" id="Fill-16" fill="#C7B299"></path>
                                <g id="Group-20">
                                    <mask id="mask-19" fill="white">
                                        <use xlink:href="#path-18"></use>
                                    </mask>
                                    <g id="Clip-19"></g>
                                    <path d="M36.3701293,0.345847059 C34.1837287,0.345847059 32.2390725,1.35830588 30.9758729,2.93270588 C30.702512,3.27372941 30.461254,3.6408 30.2564765,4.03054118 C30.1470349,4.23891765 30.0492671,4.45356471 29.9617138,4.67351765 C25.1963819,12.1924353 16.7625666,17.1939529 7.1458089,17.1939529 C7.08063033,17.1939529 7.01642457,17.1896118 6.951246,17.1891294 L6.94346349,17.1939529 C3.13586754,17.1939529 0.0491271322,20.2549647 0.0491271322,24.0303412 C0.0491271322,27.8062 3.13586754,30.8672118 6.94346349,30.8672118 C9.40371135,30.8672118 11.5570362,29.5851176 12.7769456,27.6619765 L12.7822961,27.6716235 L12.8109941,27.6547412 C17.3443097,19.6322471 25.9284248,14.1710471 35.8185434,13.9916118 C35.9644656,14.0027059 36.1113606,14.0113882 36.2602012,14.0133176 C36.2971682,14.0142824 36.3326759,14.0191059 36.3701293,14.0191059 C36.5452359,14.0191059 36.7164512,14.0060824 36.888153,13.9930588 C40.4525453,13.7296941 43.2639792,10.7849294 43.2639792,7.18271765 C43.2639792,3.40685882 40.1772388,0.345847059 36.3701293,0.345847059" id="Fill-18" fill="url(#linearGradient-20)" mask="url(#mask-19)"></path>
                                </g>
                            </g>
                            <g id="Group-24" transform="translate(29.184435, 33.901212)">
                                <mask id="mask-22" fill="white">
                                    <use xlink:href="#path-21"></use>
                                </mask>
                                <g id="Clip-23"></g>
                                <path d="M1.16835021,3.69578824 C0.0744203092,5.57310588 -0.0141058102,7.74948235 0.729610874,9.62149412 C0.890611674,10.0266706 1.09052505,10.4173765 1.3283782,10.7883059 C1.4558169,10.9860706 1.59444296,11.1775647 1.74279717,11.3627882 C5.92687233,19.2150118 6.07717217,28.9585412 1.26903651,37.2173882 C1.23644723,37.2733412 1.19996668,37.3264 1.16786381,37.3828353 L1.16786381,37.3915176 C-0.735934168,40.6613882 0.393503465,44.8419412 3.69134462,46.7303529 C6.98821295,48.6182824 11.2048774,47.4977765 13.108189,44.2279059 C14.3383129,42.1152 14.2959955,39.6248118 13.2258995,37.6153294 L13.2375733,37.6158118 L13.2370869,37.5830118 C8.49704824,29.6786941 8.02036914,19.5753294 12.8085621,10.9918588 C12.8917377,10.8722353 12.9724813,10.7502 13.0483609,10.6238235 C13.0673308,10.5924706 13.0897055,10.5640118 13.108189,10.5316941 C13.1957423,10.3816824 13.2696762,10.2282941 13.3445829,10.0739412 C14.8967084,6.88124706 13.7312767,2.99444706 10.5847082,1.19285882 C9.49953358,0.571588235 8.31367271,0.275905882 7.14434968,0.275905882 C4.76192697,0.275905882 2.44468284,1.50204706 1.16835021,3.69578824" id="Fill-22" fill="url(#linearGradient-23)" mask="url(#mask-22)"></path>
                            </g>
                            <g id="Group-27" transform="translate(29.184435, 33.901212)">
                                <mask id="mask-25" fill="white">
                                    <use xlink:href="#path-24"></use>
                                </mask>
                                <g id="Clip-26"></g>
                                <path d="M3.90001333,1.19189412 C0.602658582,3.07982353 -0.527265458,7.26085882 1.37653252,10.5307294 C2.46997601,12.4085294 4.32610608,13.5729294 6.33204957,13.8700588 C6.76738406,13.9342118 7.20806903,13.9583294 7.65118603,13.9390353 C7.88757996,13.9289059 8.12397388,13.9057529 8.3603678,13.8705412 C17.308802,14.2038471 25.8934035,18.9463412 30.7020256,27.2047059 C30.7351013,27.2606588 30.7633129,27.3185412 30.7954158,27.3744941 L30.8031983,27.3788353 C32.7069963,30.6487059 36.9231743,31.7692118 40.2210155,29.8812824 C43.5178838,27.9933529 44.6473214,23.8123176 42.7435235,20.5424471 C41.5138859,18.4297412 39.3177572,17.2214471 37.0282383,17.1351059 L37.0340752,17.1254588 L37.0053771,17.1095412 C27.7320229,17.2277176 18.6707423,12.5855529 13.569303,4.182 C13.5055837,4.0508 13.4394323,3.92056471 13.367444,3.79177647 C13.349447,3.75945882 13.3358276,3.72665882 13.3168577,3.69434118 C13.2297908,3.54432941 13.1325093,3.40396471 13.0357143,3.26263529 C11.7170642,1.34287059 9.55401119,0.276388235 7.33453491,0.276388235 C6.16715752,0.276388235 4.98421509,0.571105882 3.90001333,1.19189412" id="Fill-25" fill="url(#linearGradient-26)" mask="url(#mask-25)"></path>
                            </g>
                            <path d="M38.3890112,41.0154353 C38.3890112,42.1484824 37.4633782,43.0664 36.3208076,43.0664 C35.1782369,43.0664 34.2526039,42.1484824 34.2526039,41.0154353 C34.2526039,39.8828706 35.1782369,38.9644706 36.3208076,38.9644706 C37.4633782,38.9644706 38.3890112,39.8828706 38.3890112,41.0154353" id="Fill-28" fill="#FFFFFF"></path>
                        </g>
                    </g>
                </g>
            </g>
        </g>
    </g>
</svg>